<svg width="193" height="62" xmlns="http://www.w3.org/2000/svg">
 <g>
  <title>background</title>
  <rect x="-1" y="-1" width="195" height="64" id="canvas_background" fill="none"/>
 </g>

 <g>
  <title>Layer 1</title>
  <g id="svg_1" stroke="null">
   <path fill="#ffffff" d="m1.58246,15.91615l15.69886,0l0,8.99291c2.55118,-6.10461 6.68774,-10.05894 14.1226,-9.74915l0,16.528l-1.33026,0c-8.17288,0 -12.80145,4.71057 -12.80145,15.03373l0,13.85837l-15.68975,0l0,-44.66386z" id="svg_2" stroke="null"/>
   <path fill="#ffffff" d="m94.17204,55.15876l0,5.43948l-15.69886,0l0,-60.28984l15.68975,0l0,21.55747c3.05231,-3.71744 6.85174,-6.94285 13.54859,-6.94285c10.66028,0 19.83542,8.84712 19.83542,23.13372l0,0.17312c0,14.54172 -9.17514,23.3524 -19.74431,23.3524c-6.78796,-0.01822 -10.74229,-3.03408 -13.63059,-6.4235zm17.92204,-16.83779l0,-0.19133c0,-5.85861 -4.05455,-10.06805 -9.17513,-10.06805c-5.0477,0 -9.09314,4.21855 -9.09314,10.06805l0,0.19133c0,5.94061 4.04545,10.14094 9.09314,10.14094c5.12058,0 9.17513,-4.14566 9.17513,-10.14094z" id="svg_3" stroke="null"/>
   <path fill="#ffffff" d="m175.72778,0.3084l15.68975,0l0,60.28984l-15.68975,0l0,-60.28984z" id="svg_4" stroke="null"/>
   <path fill="#ffffff" d="m76.70558,39.36878c0,-13.12035 -7.10686,-24.44577 -22.5506,-24.44577c-13.22058,0 -22.55061,10.32317 -22.55061,23.39796l0,0.1549c0,13.86748 9.90405,23.21573 23.95375,23.21573c8.92002,0 15.11574,-3.61721 19.40719,-9.09313l-8.67401,-7.18886c-3.22542,3.1343 -6.19572,4.54656 -9.92226,4.54656c-4.86547,0 -8.4189,-2.46917 -9.65804,-7.36197l29.90347,0c0.09111,-1.07514 0.09111,-2.2414 0.09111,-3.22542zm-22.4686,-12.86523c4.03633,0 6.81529,2.75163 7.6262,7.19797l-15.21596,0c1.01136,-4.37345 3.71743,-7.19797 7.58976,-7.19797z" id="svg_5" stroke="null"/>
   <path fill="#ffffff" d="m151.45513,14.92301c-15.44374,0 -22.5506,11.32542 -22.5506,24.44577c0,0.98403 0,2.15028 0.09111,3.22542l29.89436,0c-1.23915,4.8928 -4.79257,7.36197 -9.66715,7.36197c-3.71743,0 -6.67862,-1.41226 -9.91315,-4.54656l-8.67401,7.18886c4.30056,5.47592 10.49628,9.09313 19.40718,9.09313c14.04971,0 23.97198,-9.33914 23.97198,-23.21573l0,-0.1549c0.00911,-13.07479 -9.33914,-23.39795 -22.55972,-23.39795l0,-0.00001zm-0.07289,11.58054c3.87233,0 6.58751,2.83363 7.57154,7.19797l-15.20685,0c0.81091,-4.45546 3.60809,-7.19797 7.63531,-7.19797z" id="svg_6" stroke="null"/>
  </g>
 </g>
</svg>